<svg width="40" height="38" viewBox="0 0 40 38" fill="none" xmlns="http://www.w3.org/2000/svg">
<g id="Icon 3">
<path id="Vector" d="M20 23.5833C22.9174 23.5833 25.7153 22.4243 27.7782 20.3614C29.8411 18.2985 31 15.5006 31 12.5833C31 9.66587 29.8411 6.86798 27.7782 4.80508C25.7153 2.74218 22.9174 1.58325 20 1.58325C17.0826 1.58325 14.2847 2.74218 12.2218 4.80508C10.1589 6.86798 9 9.66587 9 12.5833C9 15.5006 10.1589 18.2985 12.2218 20.3614C14.2847 22.4243 17.0826 23.5833 20 23.5833Z" stroke="white" stroke-width="2.5" stroke-linecap="round" stroke-linejoin="round"/>
<path id="Vector_2" d="M27.333 36.4167C28.7775 36.4167 30.2079 36.1322 31.5425 35.5794C32.8771 35.0266 34.0897 34.2164 35.1112 33.1949C36.1326 32.1735 36.9429 30.9608 37.4957 29.6263C38.0485 28.2917 38.333 26.8613 38.333 25.4167C38.333 23.9722 38.0485 22.5418 37.4957 21.2072C36.9429 19.8726 36.1326 18.66 35.1112 17.6386C34.0897 16.6171 32.8771 15.8069 31.5425 15.2541C30.2079 14.7013 28.7775 14.4167 27.333 14.4167C24.4156 14.4167 21.6177 15.5757 19.5548 17.6386C17.4919 19.7015 16.333 22.4994 16.333 25.4167C16.333 28.3341 17.4919 31.132 19.5548 33.1949C21.6177 35.2578 24.4156 36.4167 27.333 36.4167Z" stroke="white" stroke-width="2.5" stroke-linecap="round" stroke-linejoin="round"/>
<path id="Vector_3" d="M12.667 36.4167C14.1115 36.4167 15.5419 36.1322 16.8765 35.5794C18.2111 35.0266 19.4237 34.2164 20.4452 33.1949C21.4666 32.1735 22.2769 30.9608 22.8297 29.6263C23.3825 28.2917 23.667 26.8613 23.667 25.4167C23.667 23.9722 23.3825 22.5418 22.8297 21.2072C22.2769 19.8726 21.4666 18.66 20.4452 17.6386C19.4237 16.6171 18.2111 15.8069 16.8765 15.2541C15.5419 14.7013 14.1115 14.4167 12.667 14.4167C9.74961 14.4167 6.95172 15.5757 4.88882 17.6386C2.82592 19.7015 1.66699 22.4994 1.66699 25.4167C1.66699 28.3341 2.82592 31.132 4.88882 33.1949C6.95172 35.2578 9.74961 36.4167 12.667 36.4167Z" stroke="white" stroke-width="2.5" stroke-linecap="round" stroke-linejoin="round"/>
</g>
</svg>
