<svg width="30" height="40" viewBox="0 0 30 40" fill="none" xmlns="http://www.w3.org/2000/svg">
<g id="Icon 4">
<path id="Vector" d="M15 32.8563L15.0225 32.8315" stroke="white" stroke-width="2.5" stroke-linecap="round" stroke-linejoin="round"/>
<path id="Vector_2" d="M26 31.0001V37.2334C26 37.3779 25.9715 37.5209 25.9163 37.6544C25.861 37.7878 25.78 37.9091 25.6778 38.0112C25.5757 38.1134 25.4544 38.1944 25.321 38.2497C25.1875 38.305 25.0445 38.3334 24.9 38.3334H5.1C4.95555 38.3334 4.81251 38.305 4.67905 38.2497C4.54559 38.1944 4.42433 38.1134 4.32218 38.0112C4.22004 37.9091 4.13901 37.7878 4.08373 37.6544C4.02845 37.5209 4 37.3779 4 37.2334V31.0001M26 9.00008V2.76675C26 2.47501 25.8841 2.19522 25.6778 1.98893C25.4715 1.78264 25.1917 1.66675 24.9 1.66675H5.1C4.80826 1.66675 4.52847 1.78264 4.32218 1.98893C4.11589 2.19522 4 2.47501 4 2.76675V9.00008" stroke="white" stroke-width="2.5" stroke-linecap="round"/>
<path id="Vector_3" d="M21.417 13.5833L27.8336 19.9999L21.417 26.4166M8.58365 13.5833L2.16699 19.9999L8.58365 26.4166" stroke="white" stroke-width="2.5" stroke-linecap="round" stroke-linejoin="round"/>
</g>
</svg>
