<svg width="30" height="30" viewBox="0 0 30 30" fill="none" xmlns="http://www.w3.org/2000/svg">
<g id="Icon">
<path id="Vector" d="M15 21C16.5913 21 18.1174 20.3679 19.2426 19.2426C20.3679 18.1174 21 16.5913 21 15C21 13.4087 20.3679 11.8826 19.2426 10.7574C18.1174 9.63214 16.5913 9 15 9C13.4087 9 11.8826 9.63214 10.7574 10.7574C9.63214 11.8826 9 13.4087 9 15C9 16.5913 9.63214 18.1174 10.7574 19.2426C11.8826 20.3679 13.4087 21 15 21Z" stroke="white" stroke-width="2" stroke-linecap="round" stroke-linejoin="round"/>
<path id="Vector_2" d="M1.5 21V9C1.5 7.01088 2.29018 5.10322 3.6967 3.6967C5.10322 2.29018 7.01088 1.5 9 1.5H21C22.9891 1.5 24.8968 2.29018 26.3033 3.6967C27.7098 5.10322 28.5 7.01088 28.5 9V21C28.5 22.9891 27.7098 24.8968 26.3033 26.3033C24.8968 27.7098 22.9891 28.5 21 28.5H9C7.01088 28.5 5.10322 27.7098 3.6967 26.3033C2.29018 24.8968 1.5 22.9891 1.5 21Z" stroke="white" stroke-width="2"/>
<path id="Vector_3" d="M23.25 6.76504L23.265 6.74854" stroke="white" stroke-width="2" stroke-linecap="round" stroke-linejoin="round"/>
</g>
</svg>
