<svg width="230" height="128" viewBox="0 0 230 128" fill="none" xmlns="http://www.w3.org/2000/svg">
<g id="Inner Icons">
<g id="Icon 2">
<g id="Ellipse 20" opacity="0.2" filter="url(#filter0_bd_1_605)">
<circle cx="166" cy="60" r="41" fill="url(#paint0_linear_1_605)" shape-rendering="crispEdges"/>
<circle cx="166" cy="60" r="40.5" stroke="url(#paint1_linear_1_605)" shape-rendering="crispEdges"/>
</g>
<path id="Vector" d="M182.5 46.5151C182.5 46.5151 179.473 48.3031 177.79 48.8101C176.887 47.7713 175.686 47.0351 174.351 46.701C173.015 46.3668 171.609 46.4509 170.323 46.9418C169.037 47.4327 167.933 48.3067 167.159 49.4457C166.386 50.5846 165.982 51.9336 166 53.3101V54.8101C163.364 54.8784 160.752 54.2938 158.397 53.1083C156.041 51.9227 154.015 50.173 152.5 48.0151C152.5 48.0151 146.5 61.5151 160 67.5151C156.911 69.612 153.231 70.6635 149.5 70.5151C163 78.0151 179.5 70.5151 179.5 53.2651C179.5 52.8481 179.458 52.4311 179.38 52.0201C180.91 50.5111 182.5 46.5151 182.5 46.5151Z" stroke="white" stroke-width="2" stroke-linecap="round" stroke-linejoin="round"/>
</g>
<g id="Icon 1">
<g id="Ellipse 19" opacity="0.2" filter="url(#filter1_bd_1_605)">
<circle cx="64" cy="60" r="41" fill="url(#paint2_linear_1_605)" shape-rendering="crispEdges"/>
<circle cx="64" cy="60" r="40.5" stroke="url(#paint3_linear_1_605)" shape-rendering="crispEdges"/>
</g>
<path id="Vector_2" d="M71.0095 73.2645C69.25 63 64.75 54 58.75 45.945M49.1005 58.26C55 58.5 68.9245 57.75 74.713 49.5M78.952 61.215C69.016 58.26 57.25 63 53.845 71.0415M49 60C49 68.2845 55.7155 75 64 75C72.2845 75 79 68.2845 79 60C79 51.7155 72.2845 45 64 45C55.7155 45 49 51.7155 49 60Z" stroke="white" stroke-width="2" stroke-linecap="round" stroke-linejoin="round"/>
</g>
</g>
<defs>
<filter id="filter0_bd_1_605" x="85" y="-21" width="162" height="162" filterUnits="userSpaceOnUse" color-interpolation-filters="sRGB">
<feFlood flood-opacity="0" result="BackgroundImageFix"/>
<feGaussianBlur in="BackgroundImageFix" stdDeviation="20"/>
<feComposite in2="SourceAlpha" operator="in" result="effect1_backgroundBlur_1_605"/>
<feColorMatrix in="SourceAlpha" type="matrix" values="0 0 0 0 0 0 0 0 0 0 0 0 0 0 0 0 0 0 127 0" result="hardAlpha"/>
<feMorphology radius="1" operator="erode" in="SourceAlpha" result="effect2_dropShadow_1_605"/>
<feOffset dy="4"/>
<feGaussianBlur stdDeviation="12"/>
<feComposite in2="hardAlpha" operator="out"/>
<feColorMatrix type="matrix" values="0 0 0 0 0 0 0 0 0 0 0 0 0 0 0 0 0 0 0.1 0"/>
<feBlend mode="normal" in2="effect1_backgroundBlur_1_605" result="effect2_dropShadow_1_605"/>
<feBlend mode="normal" in="SourceGraphic" in2="effect2_dropShadow_1_605" result="shape"/>
</filter>
<filter id="filter1_bd_1_605" x="-17" y="-21" width="162" height="162" filterUnits="userSpaceOnUse" color-interpolation-filters="sRGB">
<feFlood flood-opacity="0" result="BackgroundImageFix"/>
<feGaussianBlur in="BackgroundImageFix" stdDeviation="20"/>
<feComposite in2="SourceAlpha" operator="in" result="effect1_backgroundBlur_1_605"/>
<feColorMatrix in="SourceAlpha" type="matrix" values="0 0 0 0 0 0 0 0 0 0 0 0 0 0 0 0 0 0 127 0" result="hardAlpha"/>
<feMorphology radius="1" operator="erode" in="SourceAlpha" result="effect2_dropShadow_1_605"/>
<feOffset dy="4"/>
<feGaussianBlur stdDeviation="12"/>
<feComposite in2="hardAlpha" operator="out"/>
<feColorMatrix type="matrix" values="0 0 0 0 0 0 0 0 0 0 0 0 0 0 0 0 0 0 0.1 0"/>
<feBlend mode="normal" in2="effect1_backgroundBlur_1_605" result="effect2_dropShadow_1_605"/>
<feBlend mode="normal" in="SourceGraphic" in2="effect2_dropShadow_1_605" result="shape"/>
</filter>
<linearGradient id="paint0_linear_1_605" x1="125" y1="13" x2="203.5" y2="103" gradientUnits="userSpaceOnUse">
<stop stop-color="white" stop-opacity="0.4"/>
<stop offset="1" stop-color="white" stop-opacity="0.1"/>
</linearGradient>
<linearGradient id="paint1_linear_1_605" x1="143.046" y1="19" x2="214.475" y2="57.2464" gradientUnits="userSpaceOnUse">
<stop stop-color="white" stop-opacity="0.5"/>
<stop offset="1" stop-color="white" stop-opacity="0.1"/>
</linearGradient>
<linearGradient id="paint2_linear_1_605" x1="27" y1="13" x2="105" y2="110" gradientUnits="userSpaceOnUse">
<stop stop-color="white" stop-opacity="0.4"/>
<stop offset="1" stop-color="white" stop-opacity="0.1"/>
</linearGradient>
<linearGradient id="paint3_linear_1_605" x1="41.0458" y1="19" x2="112.475" y2="57.2464" gradientUnits="userSpaceOnUse">
<stop stop-color="white" stop-opacity="0.5"/>
<stop offset="1" stop-color="white" stop-opacity="0.1"/>
</linearGradient>
</defs>
</svg>
