<svg width="68" height="68" viewBox="0 0 68 68" fill="none" xmlns="http://www.w3.org/2000/svg">
<g id="Icon">
<g id="Rectangle 50" opacity="0.2" filter="url(#filter0_b_1_205)">
<rect width="68" height="68" rx="10" fill="url(#paint0_linear_1_205)"/>
<rect x="0.5" y="0.5" width="67" height="67" rx="9.5" stroke="url(#paint1_linear_1_205)"/>
</g>
<g id="Icon_2">
<path id="Vector" d="M44 31.5C44 37.0225 34 46.5 34 46.5C34 46.5 24 37.0225 24 31.5C24 28.8478 25.0536 26.3043 26.9289 24.4289C28.8043 22.5536 31.3478 21.5 34 21.5C36.6522 21.5 39.1957 22.5536 41.0711 24.4289C42.9464 26.3043 44 28.8478 44 31.5Z" stroke="white" stroke-width="2"/>
<path id="Vector_2" d="M34 32.75C34.3315 32.75 34.6495 32.6183 34.8839 32.3839C35.1183 32.1495 35.25 31.8315 35.25 31.5C35.25 31.1685 35.1183 30.8505 34.8839 30.6161C34.6495 30.3817 34.3315 30.25 34 30.25C33.6685 30.25 33.3505 30.3817 33.1161 30.6161C32.8817 30.8505 32.75 31.1685 32.75 31.5C32.75 31.8315 32.8817 32.1495 33.1161 32.3839C33.3505 32.6183 33.6685 32.75 34 32.75Z" stroke="white" stroke-width="2" stroke-linecap="round" stroke-linejoin="round"/>
</g>
</g>
<defs>
<filter id="filter0_b_1_205" x="-40" y="-40" width="148" height="148" filterUnits="userSpaceOnUse" color-interpolation-filters="sRGB">
<feFlood flood-opacity="0" result="BackgroundImageFix"/>
<feGaussianBlur in="BackgroundImageFix" stdDeviation="20"/>
<feComposite in2="SourceAlpha" operator="in" result="effect1_backgroundBlur_1_205"/>
<feBlend mode="normal" in="SourceGraphic" in2="effect1_backgroundBlur_1_205" result="shape"/>
</filter>
<linearGradient id="paint0_linear_1_205" x1="3.73171" y1="1.63036e-08" x2="6.58356" y2="70.241" gradientUnits="userSpaceOnUse">
<stop stop-color="white" stop-opacity="0.4"/>
<stop offset="1" stop-color="white" stop-opacity="0.1"/>
</linearGradient>
<linearGradient id="paint1_linear_1_205" x1="4.97561" y1="-3.31508e-08" x2="6.36743" y2="68.561" gradientUnits="userSpaceOnUse">
<stop stop-color="white" stop-opacity="0.4"/>
<stop offset="1" stop-color="white" stop-opacity="0.1"/>
</linearGradient>
</defs>
</svg>
