<svg width="68" height="68" viewBox="0 0 68 68" fill="none" xmlns="http://www.w3.org/2000/svg">
<g id="Icon">
<g id="Rectangle 49" opacity="0.2" filter="url(#filter0_b_1_196)">
<rect width="68" height="68" rx="10" fill="url(#paint0_linear_1_196)"/>
<rect x="0.5" y="0.5" width="67" height="67" rx="9.5" stroke="url(#paint1_linear_1_196)"/>
</g>
<g id="Icon_2">
<path id="Vector" d="M41.6482 37.3775L36.5007 38.375C33.0232 36.63 30.8757 34.625 29.6257 31.5L30.5882 26.3375L28.7695 21.5H24.0807C22.6707 21.5 21.5607 22.665 21.772 24.0588C22.297 27.5375 23.847 33.8463 28.3757 38.375C33.132 43.1313 39.9832 45.195 43.7532 46.0163C45.2095 46.3325 46.5007 45.1975 46.5007 43.7063V39.2263L41.6482 37.3775Z" stroke="white" stroke-width="2" stroke-linecap="round" stroke-linejoin="round"/>
</g>
</g>
<defs>
<filter id="filter0_b_1_196" x="-40" y="-40" width="148" height="148" filterUnits="userSpaceOnUse" color-interpolation-filters="sRGB">
<feFlood flood-opacity="0" result="BackgroundImageFix"/>
<feGaussianBlur in="BackgroundImageFix" stdDeviation="20"/>
<feComposite in2="SourceAlpha" operator="in" result="effect1_backgroundBlur_1_196"/>
<feBlend mode="normal" in="SourceGraphic" in2="effect1_backgroundBlur_1_196" result="shape"/>
</filter>
<linearGradient id="paint0_linear_1_196" x1="3.73171" y1="1.63036e-08" x2="6.58356" y2="70.241" gradientUnits="userSpaceOnUse">
<stop stop-color="white" stop-opacity="0.4"/>
<stop offset="1" stop-color="white" stop-opacity="0.1"/>
</linearGradient>
<linearGradient id="paint1_linear_1_196" x1="4.97561" y1="-3.31508e-08" x2="6.36743" y2="68.561" gradientUnits="userSpaceOnUse">
<stop stop-color="white" stop-opacity="0.4"/>
<stop offset="1" stop-color="white" stop-opacity="0.1"/>
</linearGradient>
</defs>
</svg>
