<svg width="68" height="68" viewBox="0 0 68 68" fill="none" xmlns="http://www.w3.org/2000/svg">
<g id="Icon">
<g id="Rectangle 48" opacity="0.2" filter="url(#filter0_b_1_186)">
<rect width="68" height="68" rx="10" fill="url(#paint0_linear_1_186)"/>
<rect x="0.5" y="0.5" width="67" height="67" rx="9.5" stroke="url(#paint1_linear_1_186)"/>
</g>
<g id="Icon_2">
<path id="Vector" d="M27.75 30.6667L34 35.0417L40.25 30.6667" stroke="white" stroke-width="2" stroke-linecap="round" stroke-linejoin="round"/>
<path id="Vector_2" d="M21.5 40.6667V28.1667C21.5 27.5037 21.7634 26.8678 22.2322 26.399C22.7011 25.9301 23.337 25.6667 24 25.6667H44C44.663 25.6667 45.2989 25.9301 45.7678 26.399C46.2366 26.8678 46.5 27.5037 46.5 28.1667V40.6667C46.5 41.3298 46.2366 41.9657 45.7678 42.4345C45.2989 42.9034 44.663 43.1667 44 43.1667H24C23.337 43.1667 22.7011 42.9034 22.2322 42.4345C21.7634 41.9657 21.5 41.3298 21.5 40.6667Z" stroke="white" stroke-width="2"/>
</g>
</g>
<defs>
<filter id="filter0_b_1_186" x="-40" y="-40" width="148" height="148" filterUnits="userSpaceOnUse" color-interpolation-filters="sRGB">
<feFlood flood-opacity="0" result="BackgroundImageFix"/>
<feGaussianBlur in="BackgroundImageFix" stdDeviation="20"/>
<feComposite in2="SourceAlpha" operator="in" result="effect1_backgroundBlur_1_186"/>
<feBlend mode="normal" in="SourceGraphic" in2="effect1_backgroundBlur_1_186" result="shape"/>
</filter>
<linearGradient id="paint0_linear_1_186" x1="3.73171" y1="1.63036e-08" x2="6.58356" y2="70.241" gradientUnits="userSpaceOnUse">
<stop stop-color="white" stop-opacity="0.4"/>
<stop offset="1" stop-color="white" stop-opacity="0.1"/>
</linearGradient>
<linearGradient id="paint1_linear_1_186" x1="4.97561" y1="-3.31508e-08" x2="6.36743" y2="68.561" gradientUnits="userSpaceOnUse">
<stop stop-color="white" stop-opacity="0.4"/>
<stop offset="1" stop-color="white" stop-opacity="0.1"/>
</linearGradient>
</defs>
</svg>
